<?xml version="1.0" encoding="UTF-8"?>
<svg width="315px" height="500px" viewBox="0 0 315 500" version="1.1" xmlns="http://www.w3.org/2000/svg" xmlns:xlink="http://www.w3.org/1999/xlink">
    <!-- Generator: Sketch 43.2 (39069) - http://www.bohemiancoding.com/sketch -->
    <title>ic_clean</title>
    <desc>Created with Sketch.</desc>
    <defs></defs>
    <g id="icons" stroke="none" stroke-width="1" fill="none" fill-rule="evenodd">
        <g id="ic_clean_w" fill-rule="nonzero" fill="#FFFFFF">
            <g id="Group-7">
                <path d="M309.16881,88.9766947 C301.287714,81.0077684 288.152555,81.0077684 280.271459,88.9766947 L175.190186,195.229044 L175.190186,195.229044 C167.30909,195.229044 160.084753,198.54943 154.830689,203.862047 L150.233383,208.510588 C127.246855,195.893121 108.200874,205.854279 100.976536,212.495051 C72.0791861,237.729984 35.9574983,268.277534 5.08987419,276.910538 C3.11960031,277.574615 1.80608439,278.902769 0.49256847,280.895001 C-0.16418949,282.887232 -0.16418949,284.879464 0.49256847,286.871695 C13.6277277,311.442551 30.0466767,332.693021 48.4358995,351.951259 L48.4358995,351.951259 L48.4358995,351.951259 C67.4818804,371.209498 88.4981351,387.14735 112.79818,401.092971 C114.111696,401.757048 120.679275,404.413357 122.649549,395.780353 C123.963065,366.560957 152.203657,332.693021 183.071281,300.817316 C196.206441,287.535773 198.176714,266.94938 189.638861,251.011527 L194.892925,245.69891 C200.146988,240.386292 203.430778,233.081443 203.430778,225.112517 L203.430778,225.112517 L308.512052,118.860168 C317.049905,110.227165 317.049905,96.9456209 309.16881,88.9766947 Z M174.533428,290.856158 C144.97932,321.403709 117.395485,353.279414 111.484664,383.826964 C104.917084,379.842501 98.3495045,375.193961 91.7819249,370.54542 C96.3792306,360.584263 104.260326,347.966796 117.395485,332.693021 C120.022517,330.036712 119.365759,325.388172 116.738727,323.39594 C114.111696,320.739632 109.51439,321.403709 107.544116,324.060018 C95.0657147,339.333793 86.5278612,351.287182 81.2737975,361.912417 C74.7062179,356.5998 68.7953963,351.287182 63.5413326,345.974565 L103.603568,305.465856 C106.2306,302.809548 106.2306,298.825085 103.603568,296.168776 C100.976536,293.512467 97.0359886,293.512467 94.4089567,296.168776 L54.3467212,336.677484 C48.4358995,330.700789 43.1818359,324.724095 37.9277722,318.083323 C53.0332053,308.786242 70.7656702,294.840622 94.4089567,273.590152 C97.0359886,270.933843 97.6927465,266.94938 95.0657147,264.293071 C92.4386829,261.636762 88.4981351,260.972685 85.8711033,263.628994 C62.8845747,284.215387 44.4953518,298.825085 30.7034346,307.458088 C26.1061289,300.817316 21.5088232,293.512467 16.9115175,286.207618 C47.7791416,274.918306 80.6170396,247.691142 109.51439,221.792131 C114.768453,217.143591 121.336033,214.487282 128.560371,214.487282 C135.12795,214.487282 141.038772,216.479514 146.292836,221.128054 L146.292836,221.128054 L177.16046,252.339682 C185.041555,264.293071 184.384797,280.895001 174.533428,290.856158 Z M182.414523,239.722215 L160.084753,217.143591 L164.0253,213.159128 C169.936122,207.182433 180.444249,207.182433 186.355071,213.159128 C189.638861,216.479514 190.952377,220.463977 190.952377,224.44844 C191.609135,232.417366 182.414523,239.722215 182.414523,239.722215 Z M299.974198,108.89901 L200.146988,209.174665 C198.833472,207.182433 197.519956,205.190202 195.549683,203.19797 C193.579409,201.205739 191.609135,199.877584 189.638861,198.54943 L289.466071,98.2737752 C292.093103,95.6174665 296.690408,95.6174665 299.31744,98.2737752 C302.60123,100.930084 302.60123,105.578624 299.974198,108.89901 Z" id="Shape"></path>
            </g>
        </g>
    </g>
</svg>