<?xml version="1.0" encoding="UTF-8"?>
<svg width="500px" height="500px" viewBox="0 0 500 500" version="1.1" xmlns="http://www.w3.org/2000/svg" xmlns:xlink="http://www.w3.org/1999/xlink">
    <!-- Generator: Sketch 43.2 (39069) - http://www.bohemiancoding.com/sketch -->
    <title>Artboard Copy</title>
    <desc>Created with Sketch.</desc>
    <defs></defs>
    <g id="icons" stroke="none" stroke-width="1" fill="none" fill-rule="evenodd">
        <g id="Artboard-Copy" fill-rule="nonzero" fill="#4A4A4A">
            <g id="noun_1028744_cc" transform="translate(50.000000, 38.000000)">
                <g id="Group" transform="translate(0.000000, 0.637820)">
                    <path d="M200.000046,0 C196.35887,0.142511052 192.036517,1.44819495 189.154165,3.68055402 L6.80123811,145.013828 C2.57065035,148.313902 -0.0146434756,153.6308 6.24051545e-05,158.999934 L6.24051545e-05,406.333341 C0.00123887561,415.583015 8.40712029,423.998822 17.6471193,424 L141.176523,424 C150.416522,423.998822 158.822403,415.583015 158.82358,406.333341 L158.82358,270.888953 L241.176512,270.888953 L241.176512,406.333341 C241.177688,415.583015 249.58357,423.998822 258.823569,424 L382.352943,424 C391.592942,423.998822 399.998824,415.583015 400,406.333341 L400,158.999934 C400,153.6308 397.429412,148.313902 393.198824,145.013828 L210.845927,3.68055402 C207.576516,1.1465073 204.153575,0.0478177579 200.000046,0 L200.000046,0 Z M200.000046,39.9340111 L364.705886,167.465208 L364.705886,388.666681 L276.470626,388.666681 L276.470626,253.222293 C276.469449,243.972031 268.063568,235.556223 258.823569,235.555634 L141.176523,235.555634 C131.936524,235.556223 123.530643,243.972031 123.529466,253.222293 L123.529466,388.666681 L35.2941761,388.666681 L35.2941761,167.465208 L200.000046,39.9340111 Z" id="Shape"></path>
                </g>
            </g>
        </g>
    </g>
</svg>