<?xml version="1.0" encoding="UTF-8"?>
<svg width="315px" height="500px" viewBox="0 0 315 500" version="1.1" xmlns="http://www.w3.org/2000/svg" xmlns:xlink="http://www.w3.org/1999/xlink">
    <!-- Generator: Sketch 43.2 (39069) - http://www.bohemiancoding.com/sketch -->
    <title>ic_light_w</title>
    <desc>Created with Sketch.</desc>
    <defs></defs>
    <g id="icons" stroke="none" stroke-width="1" fill="none" fill-rule="evenodd">
        <g id="ic_light_w" fill-rule="nonzero" fill="#FFFFFF">
            <g id="Group-7">
                <path d="M157.462684,0 C119.272724,0 81.0732456,13.6812576 50.9856063,41.019081 C-8.00037525,94.6140139 -16.7623824,183.469031 29.706614,247.437025 C51.3330437,275.057998 62.9075952,308.953053 62.9075952,343.738275 C62.9075952,352.022932 66.2334759,359.976769 72.1414879,365.834867 C78.0493949,371.693069 86.0708603,374.990909 94.4259581,374.990909 L220.49941,374.990909 C228.854507,374.990909 236.875973,371.693069 242.78388,365.834867 C248.691892,359.976769 252.017772,352.022932 252.017772,343.738275 C252.017772,308.953053 263.715445,275.139391 285.341875,247.518417 C331.810868,183.550423 322.925747,94.614015 263.939761,41.019081 C233.852122,13.6812586 195.652644,0 157.462684,0 Z M157.462684,20.7537025 C190.53112,20.7537025 223.599482,32.6293053 249.740077,56.3808901 C302.021371,103.883851 308.995545,182.884231 265.827575,238.667567 C243.257905,269.176711 231.005531,305.94582 231.005531,343.738275 C231.005531,346.505175 229.900717,349.147283 227.927563,351.103802 C225.954408,353.060321 223.289835,354.15582 220.49941,354.15582 L94.4259581,354.15582 C91.6355323,354.15582 88.9709594,353.060321 86.9978048,351.103802 C85.0246503,349.147283 83.9198371,346.505175 83.9198371,343.738275 C83.9198371,305.94582 71.5834868,269.239206 49.0157086,238.728614 C5.84774279,182.945268 12.9039961,103.883851 65.1852907,56.3808901 C91.3258854,32.6293053 124.394248,20.7537025 157.462684,20.7537025 Z M157.462684,52.047029 C153.673817,51.9939234 150.149615,53.9677997 148.239552,57.2128283 C146.329489,60.4578569 146.329489,64.4712903 148.239552,67.7163188 C150.149615,70.9613474 153.673817,72.9352237 157.462684,72.8821181 C204.006092,72.8821191 241.511651,110.071471 241.511651,156.222474 C241.458094,159.979397 243.448754,163.473887 246.721374,165.367846 C249.993993,167.261806 254.041552,167.261806 257.314171,165.367846 C260.586791,163.473887 262.577451,159.979397 262.523893,156.222474 C262.523893,98.8113572 215.361948,52.0470301 157.462684,52.047029 Z M94.4259581,395.825998 C90.6370912,395.772892 87.1128889,397.746769 85.2028262,400.991797 C83.2927635,404.236826 83.2927635,408.250259 85.2028262,411.495288 C87.1128889,414.740316 90.6370912,416.714193 94.4259581,416.661087 L220.49941,416.661087 C224.288276,416.714193 227.812479,414.740316 229.722541,411.495288 C231.632604,408.250259 231.632604,404.236826 229.722541,400.991797 C227.812479,397.746769 224.288276,395.772892 220.49941,395.825998 L94.4259581,395.825998 Z M94.4259581,437.496176 C90.6370912,437.44307 87.1128889,439.416947 85.2028262,442.661975 C83.2927635,445.907004 83.2927635,449.920437 85.2028262,453.165466 C87.1128889,456.410494 90.6370912,458.384371 94.4259581,458.331265 L220.49941,458.331265 C224.288276,458.384371 227.812479,456.410494 229.722541,453.165466 C231.632604,449.920437 231.632604,445.907004 229.722541,442.661975 C227.812479,439.416947 224.288276,437.44307 220.49941,437.496176 L94.4259581,437.496176 Z M125.944321,479.166354 C122.155454,479.113248 118.631252,481.087125 116.721189,484.332153 C114.811126,487.577182 114.811126,491.590615 116.721189,494.835644 C118.631252,498.080673 122.155454,500.054549 125.944321,500.001443 L188.981047,500.001443 C192.769914,500.054549 196.294116,498.080673 198.204179,494.835644 C200.114241,491.590615 200.114241,487.577182 198.204179,484.332153 C196.294116,481.087125 192.769914,479.113248 188.981047,479.166354 L125.944321,479.166354 Z" id="Shape"></path>
            </g>
        </g>
    </g>
</svg>