<?xml version="1.0" encoding="UTF-8"?>
<svg width="500px" height="500px" viewBox="0 0 500 500" version="1.1" xmlns="http://www.w3.org/2000/svg" xmlns:xlink="http://www.w3.org/1999/xlink">
    <!-- Generator: Sketch 43.2 (39069) - http://www.bohemiancoding.com/sketch -->
    <title>Artboard</title>
    <desc>Created with Sketch.</desc>
    <defs></defs>
    <g id="icons" stroke="none" stroke-width="1" fill="none" fill-rule="evenodd">
        <g id="Artboard" fill-rule="nonzero" fill="#FFFFFF">
            <g id="Group-7">
                <path d="M250,289.943609 C275.408163,289.943609 295.765306,268.533835 295.765306,242.011278 L295.918367,146.146617 C295.918367,119.62406 275.408163,98.2142857 250,98.2142857 C224.591837,98.2142857 204.081633,119.62406 204.081633,146.146617 L204.081633,242.011278 C204.081633,268.533835 224.591837,289.943609 250,289.943609 Z M357.142857,242.011278 L331.122449,242.011278 C331.122449,289.943609 292.244898,323.496241 250,323.496241 C207.755102,323.496241 168.877551,289.943609 168.877551,242.011278 L142.857143,242.011278 C142.857143,296.494361 184.489796,341.550752 234.693878,349.379699 L234.693878,401.785714 L265.306122,401.785714 L265.306122,349.379699 C315.510204,341.550752 357.142857,296.494361 357.142857,242.011278 Z" id="Shape"></path>
            </g>
        </g>
    </g>
</svg>