<?xml version="1.0" encoding="UTF-8"?>
<svg width="500px" height="55px" viewBox="0 0 500 55" version="1.1" xmlns="http://www.w3.org/2000/svg" xmlns:xlink="http://www.w3.org/1999/xlink">
    <!-- Generator: Sketch 43.2 (39069) - http://www.bohemiancoding.com/sketch -->
    <title>Artboard 2</title>
    <desc>Created with Sketch.</desc>
    <defs></defs>
    <g id="icons" stroke="none" stroke-width="1" fill="none" fill-rule="evenodd">
        <g id="Artboard-2" fill="#FFFFFF">
            <g id="Group">
                <path d="M34.6861314,48.7967914 L34.6861314,27.3796791 L6.31143552,27.3796791 L6.31143552,48.7967914 L5,48.7967914 L5,6.20320856 L6.31143552,6.20320856 L6.31143552,26.1764706 L34.6861314,26.1764706 L34.6861314,6.20320856 L35.9975669,6.20320856 L35.9975669,48.7967914 L34.6861314,48.7967914 Z M90.0048662,27.5 C90.0048662,30.7887865 89.4584402,33.8068044 88.3655718,36.5541444 C87.2727034,39.3014843 85.7625806,41.6677708 83.8351582,43.6530749 C81.9077357,45.6383789 79.6127465,47.1925078 76.9501217,48.315508 C74.2874968,49.4385083 71.4063415,50 68.3065693,50 C65.2067972,50 62.3256419,49.4385083 59.663017,48.315508 C57.0003922,47.1925078 54.705403,45.6383789 52.7779805,43.6530749 C50.8505581,41.6677708 49.3404353,39.3014843 48.2475669,36.5541444 C47.1546985,33.8068044 46.6082725,30.7887865 46.6082725,27.5 C46.6082725,24.2112135 47.1546985,21.1931956 48.2475669,18.4458556 C49.3404353,15.6985157 50.8505581,13.3322292 52.7779805,11.3469251 C54.705403,9.36162109 56.9904572,7.80749225 59.6332117,6.68449198 C62.2759662,5.56149171 65.1670565,5 68.3065693,5 C71.4460822,5 74.3371725,5.56149171 76.979927,6.68449198 C79.6226815,7.80749225 81.9077357,9.36162109 83.8351582,11.3469251 C85.7625806,13.3322292 87.2727034,15.6985157 88.3655718,18.4458556 C89.4584402,21.1931956 90.0048662,24.2112135 90.0048662,27.5 Z M88.6934307,27.5 C88.6934307,24.5320707 88.1966797,21.7546921 87.203163,19.1677807 C86.2096463,16.5808694 84.8088087,14.3248759 83.0006083,12.3997326 C81.1924078,10.4745893 79.0365089,8.96056701 76.5328467,7.85762032 C74.0291846,6.75467363 71.2871195,6.20320856 68.3065693,6.20320856 C65.3260192,6.20320856 62.5839541,6.75467363 60.080292,7.85762032 C57.5766298,8.96056701 55.4207309,10.4745893 53.6125304,12.3997326 C51.80433,14.3248759 50.4034924,16.5808694 49.4099757,19.1677807 C48.4164589,21.7546921 47.919708,24.5320707 47.919708,27.5 C47.919708,30.4679293 48.4065239,33.2453079 49.3801703,35.8322193 C50.3538167,38.4191306 51.7347842,40.6751241 53.5231144,42.6002674 C55.3114445,44.5254107 57.4574084,46.039433 59.9610706,47.1423797 C62.4647327,48.2453264 65.2465378,48.7967914 68.3065693,48.7967914 C71.3666009,48.7967914 74.148406,48.2453264 76.6520681,47.1423797 C79.1557303,46.039433 81.3016942,44.5254107 83.0900243,42.6002674 C84.8783544,40.6751241 86.259322,38.4191306 87.2329684,35.8322193 C88.2066148,33.2453079 88.6934307,30.4679293 88.6934307,27.5 Z M140.673966,48.7967914 L140.673966,7.70721925 L140.435523,7.70721925 L121.777372,48.7967914 L120.70438,48.7967914 L102.105839,7.70721925 L101.927007,7.70721925 L101.927007,48.7967914 L100.615572,48.7967914 L100.615572,6.20320856 L102.940389,6.20320856 L121.300487,46.8716578 L139.660584,6.20320856 L141.985401,6.20320856 L141.985401,48.7967914 L140.673966,48.7967914 Z M154.622871,48.7967914 L154.622871,6.20320856 L179.182482,6.20320856 L179.182482,7.40641711 L155.874696,7.40641711 L155.874696,26.1163102 L177.811436,26.1163102 L177.811436,27.3195187 L155.874696,27.3195187 L155.874696,47.5935829 L180.136253,47.5935829 L180.136253,48.7967914 L154.622871,48.7967914 Z M190.329684,48.7967914 L183.772506,48.7967914 L202.072993,6.20320856 L207.437956,6.20320856 L225.559611,48.7967914 L218.883212,48.7967914 L214.591241,38.328877 L194.562044,38.328877 L190.329684,48.7967914 Z M196.648418,33.0949198 L212.445255,33.0949198 L204.576642,13.1216578 L196.648418,33.0949198 Z M251.967153,14.0842246 C251.132599,12.9211172 250.000007,11.9685866 248.569343,11.2266043 C247.138679,10.484622 245.529206,10.1136364 243.740876,10.1136364 C242.7871,10.1136364 241.823403,10.2439827 240.849757,10.5046791 C239.87611,10.7653756 238.991894,11.1864944 238.19708,11.7680481 C237.402267,12.3496018 236.756491,13.0715198 236.259732,13.9338235 C235.762974,14.7961273 235.514599,15.828871 235.514599,17.0320856 C235.514599,18.195193 235.743104,19.1677768 236.200122,19.9498663 C236.657139,20.7319558 237.27311,21.3937139 238.048054,21.9351604 C238.822997,22.476607 239.737018,22.9378323 240.790146,23.3188503 C241.843274,23.6998682 242.965931,24.0909071 244.158151,24.4919786 C245.588815,24.9331573 247.039328,25.4344892 248.509732,25.9959893 C249.980137,26.5574894 251.31143,27.2994606 252.50365,28.2219251 C253.69587,29.1443896 254.669501,30.297453 255.424574,31.6811497 C256.179647,33.0648465 256.557178,34.8195081 256.557178,36.9451872 C256.557178,39.1510805 256.149842,41.0661683 255.335158,42.690508 C254.520474,44.3148477 253.437557,45.6584171 252.086375,46.7212567 C250.735192,47.7840962 249.175394,48.5762006 247.406934,49.0975936 C245.638475,49.6189866 243.820366,49.8796791 241.952555,49.8796791 C239.28993,49.8796791 236.71676,49.358294 234.232968,48.315508 C231.749177,47.2727221 229.692628,45.7286199 228.06326,43.6831551 L232.653285,39.7727273 C233.646801,41.2566919 234.978094,42.4598884 236.647202,43.3823529 C238.31631,44.3048174 240.124483,44.7660428 242.071776,44.7660428 C243.065293,44.7660428 244.058795,44.6256699 245.052311,44.3449198 C246.045828,44.0641697 246.949915,43.6229977 247.764599,43.0213904 C248.579282,42.4197831 249.244928,41.6677853 249.761557,40.7653743 C250.278186,39.8629634 250.536496,38.7700599 250.536496,37.486631 C250.536496,36.2032021 250.268251,35.1303519 249.731752,34.2680481 C249.195253,33.4057444 248.469996,32.6737998 247.555961,32.0721925 C246.641926,31.4705852 245.578879,30.9592267 244.366788,30.5381016 C243.154698,30.1169765 241.873081,29.6858311 240.521898,29.2446524 C239.170715,28.8435809 237.839423,28.3522756 236.527981,27.7707219 C235.216538,27.1891682 234.044206,26.447197 233.010949,25.5447861 C231.977692,24.6423752 231.14315,23.5294184 230.507299,22.2058824 C229.871449,20.8823463 229.553528,19.2379777 229.553528,17.2727273 C229.553528,15.1470482 229.980734,13.3222001 230.835158,11.7981283 C231.689583,10.2740566 232.802305,9.0107002 234.173358,8.00802139 C235.544411,7.00534258 237.094274,6.27339803 238.822993,5.81216578 C240.551712,5.35093352 242.29034,5.12032086 244.038929,5.12032086 C246.502851,5.12032086 248.807775,5.56149291 250.953771,6.44385027 C253.099767,7.32620762 254.828461,8.50935087 256.139903,9.99331551 L251.967153,14.0842246 Z M285.885645,14.0842246 C285.051091,12.9211172 283.918499,11.9685866 282.487835,11.2266043 C281.05717,10.484622 279.447698,10.1136364 277.659367,10.1136364 C276.705591,10.1136364 275.741895,10.2439827 274.768248,10.5046791 C273.794602,10.7653756 272.910385,11.1864944 272.115572,11.7680481 C271.320758,12.3496018 270.674982,13.0715198 270.178224,13.9338235 C269.681465,14.7961273 269.43309,15.828871 269.43309,17.0320856 C269.43309,18.195193 269.661595,19.1677768 270.118613,19.9498663 C270.575631,20.7319558 271.191602,21.3937139 271.966545,21.9351604 C272.741488,22.476607 273.65551,22.9378323 274.708637,23.3188503 C275.761765,23.6998682 276.884422,24.0909071 278.076642,24.4919786 C279.507306,24.9331573 280.957819,25.4344892 282.428224,25.9959893 C283.898629,26.5574894 285.229921,27.2994606 286.422141,28.2219251 C287.614361,29.1443896 288.587993,30.297453 289.343066,31.6811497 C290.098138,33.0648465 290.475669,34.8195081 290.475669,36.9451872 C290.475669,39.1510805 290.068333,41.0661683 289.25365,42.690508 C288.438966,44.3148477 287.356049,45.6584171 286.004866,46.7212567 C284.653683,47.7840962 283.093886,48.5762006 281.325426,49.0975936 C279.556966,49.6189866 277.738858,49.8796791 275.871046,49.8796791 C273.208421,49.8796791 270.635252,49.358294 268.15146,48.315508 C265.667668,47.2727221 263.611119,45.7286199 261.981752,43.6831551 L266.571776,39.7727273 C267.565293,41.2566919 268.896585,42.4598884 270.565693,43.3823529 C272.234802,44.3048174 274.042975,44.7660428 275.990268,44.7660428 C276.983784,44.7660428 277.977286,44.6256699 278.970803,44.3449198 C279.96432,44.0641697 280.868406,43.6229977 281.68309,43.0213904 C282.497774,42.4197831 283.16342,41.6677853 283.680049,40.7653743 C284.196677,39.8629634 284.454988,38.7700599 284.454988,37.486631 C284.454988,36.2032021 284.186742,35.1303519 283.650243,34.2680481 C283.113744,33.4057444 282.388488,32.6737998 281.474453,32.0721925 C280.560417,31.4705852 279.49737,30.9592267 278.28528,30.5381016 C277.073189,30.1169765 275.791572,29.6858311 274.440389,29.2446524 C273.089207,28.8435809 271.757914,28.3522756 270.446472,27.7707219 C269.13503,27.1891682 267.962698,26.447197 266.92944,25.5447861 C265.896183,24.6423752 265.061641,23.5294184 264.425791,22.2058824 C263.78994,20.8823463 263.472019,19.2379777 263.472019,17.2727273 C263.472019,15.1470482 263.899225,13.3222001 264.75365,11.7981283 C265.608074,10.2740566 266.720796,9.0107002 268.091849,8.00802139 C269.462902,7.00534258 271.012765,6.27339803 272.741484,5.81216578 C274.470203,5.35093352 276.208831,5.12032086 277.957421,5.12032086 C280.421342,5.12032086 282.726267,5.56149291 284.872263,6.44385027 C287.018259,7.32620762 288.746952,8.50935087 290.058394,9.99331551 L285.885645,14.0842246 Z M304.722628,48.7967914 L298.821168,48.7967914 L298.821168,6.20320856 L304.722628,6.20320856 L304.722628,48.7967914 Z M335.958637,14.0842246 C335.124083,12.9211172 333.991491,11.9685866 332.560827,11.2266043 C331.130163,10.484622 329.52069,10.1136364 327.73236,10.1136364 C326.778584,10.1136364 325.814887,10.2439827 324.841241,10.5046791 C323.867594,10.7653756 322.983378,11.1864944 322.188564,11.7680481 C321.393751,12.3496018 320.747975,13.0715198 320.251217,13.9338235 C319.754458,14.7961273 319.506083,15.828871 319.506083,17.0320856 C319.506083,18.195193 319.734588,19.1677768 320.191606,19.9498663 C320.648624,20.7319558 321.264595,21.3937139 322.039538,21.9351604 C322.814481,22.476607 323.728502,22.9378323 324.78163,23.3188503 C325.834758,23.6998682 326.957415,24.0909071 328.149635,24.4919786 C329.580299,24.9331573 331.030812,25.4344892 332.501217,25.9959893 C333.971621,26.5574894 335.302914,27.2994606 336.495134,28.2219251 C337.687354,29.1443896 338.660986,30.297453 339.416058,31.6811497 C340.171131,33.0648465 340.548662,34.8195081 340.548662,36.9451872 C340.548662,39.1510805 340.141326,41.0661683 339.326642,42.690508 C338.511959,44.3148477 337.429042,45.6584171 336.077859,46.7212567 C334.726676,47.7840962 333.166878,48.5762006 331.398418,49.0975936 C329.629959,49.6189866 327.81185,49.8796791 325.944039,49.8796791 C323.281414,49.8796791 320.708244,49.358294 318.224453,48.315508 C315.740661,47.2727221 313.684112,45.7286199 312.054745,43.6831551 L316.644769,39.7727273 C317.638286,41.2566919 318.969578,42.4598884 320.638686,43.3823529 C322.307794,44.3048174 324.115968,44.7660428 326.06326,44.7660428 C327.056777,44.7660428 328.050279,44.6256699 329.043796,44.3449198 C330.037312,44.0641697 330.941399,43.6229977 331.756083,43.0213904 C332.570766,42.4197831 333.236413,41.6677853 333.753041,40.7653743 C334.26967,39.8629634 334.527981,38.7700599 334.527981,37.486631 C334.527981,36.2032021 334.259735,35.1303519 333.723236,34.2680481 C333.186737,33.4057444 332.461481,32.6737998 331.547445,32.0721925 C330.63341,31.4705852 329.570363,30.9592267 328.358273,30.5381016 C327.146182,30.1169765 325.864565,29.6858311 324.513382,29.2446524 C323.162199,28.8435809 321.830907,28.3522756 320.519465,27.7707219 C319.208023,27.1891682 318.03569,26.447197 317.002433,25.5447861 C315.969176,24.6423752 315.134634,23.5294184 314.498783,22.2058824 C313.862933,20.8823463 313.545012,19.2379777 313.545012,17.2727273 C313.545012,15.1470482 313.972218,13.3222001 314.826642,11.7981283 C315.681067,10.2740566 316.793789,9.0107002 318.164842,8.00802139 C319.535895,7.00534258 321.085758,6.27339803 322.814477,5.81216578 C324.543196,5.35093352 326.281824,5.12032086 328.030414,5.12032086 C330.494335,5.12032086 332.799259,5.56149291 334.945255,6.44385027 C337.091252,7.32620762 338.819945,8.50935087 340.131387,9.99331551 L335.958637,14.0842246 Z M362.723844,48.7967914 L356.822384,48.7967914 L356.822384,11.4371658 L343.290754,11.4371658 L343.290754,6.20320856 L376.255474,6.20320856 L376.255474,11.4371658 L362.723844,11.4371658 L362.723844,48.7967914 Z M380.010949,48.7967914 L373.453771,48.7967914 L391.754258,6.20320856 L397.119221,6.20320856 L415.240876,48.7967914 L408.564477,48.7967914 L404.272506,38.328877 L384.243309,38.328877 L380.010949,48.7967914 Z M386.329684,33.0949198 L402.126521,33.0949198 L394.257908,13.1216578 L386.329684,33.0949198 Z M450.411192,40.2540107 L450.530414,40.2540107 L450.530414,6.20320856 L456.431873,6.20320856 L456.431873,48.7967914 L448.980535,48.7967914 L426.686131,14.0240642 L426.56691,14.0240642 L426.56691,48.7967914 L420.66545,48.7967914 L420.66545,6.20320856 L428.355231,6.20320856 L450.411192,40.2540107 Z M481.46837,48.7967914 L475.56691,48.7967914 L475.56691,11.4371658 L462.03528,11.4371658 L462.03528,6.20320856 L495,6.20320856 L495,11.4371658 L481.46837,11.4371658 L481.46837,48.7967914 Z" id="HOMEASSISTANT"></path>
            </g>
        </g>
    </g>
</svg>